<svg viewBox="0 0 1024 1024" fill="none" stroke="black" stroke-width="24" xmlns="http://www.w3.org/2000/svg">
  <polygon points="64,384 512,192 960,384 960,832 64,832" fill="none"/>
  <rect x="192" y="512" width="160" height="160" fill="none"/>
  <rect x="672" y="512" width="160" height="160" fill="none"/>
  <rect x="432" y="512" width="160" height="320" fill="none"/>
  <rect x="192" y="320" width="160" height="128" fill="none"/>
  <rect x="672" y="320" width="160" height="128" fill="none"/>
  <rect x="432" y="320" width="160" height="96" fill="none"/>
  <rect x="160" y="448" width="704" height="32" fill="none"/>
  <rect x="160" y="480" width="704" height="32" fill="none"/>
  <g>
    <rect x="224" y="480" width="32" height="96" fill="none"/>
    <rect x="288" y="480" width="32" height="96" fill="none"/>
    <rect x="352" y="480" width="32" height="96" fill="none"/>
    <rect x="416" y="480" width="32" height="96" fill="none"/>
    <rect x="480" y="480" width="32" height="96" fill="none"/>
    <rect x="544" y="480" width="32" height="96" fill="none"/>
    <rect x="608" y="480" width="32" height="96" fill="none"/>
    <rect x="672" y="480" width="32" height="96" fill="none"/>
    <rect x="736" y="480" width="32" height="96" fill="none"/>
    <rect x="800" y="480" width="32" height="96" fill="none"/>
  </g>
  <g>
    <line x1="192" y1="512" x2="352" y2="672"/>
    <line x1="352" y1="512" x2="192" y2="672"/>
    <line x1="672" y1="512" x2="832" y2="672"/>
    <line x1="832" y1="512" x2="672" y2="672"/>
    <line x1="192" y1="320" x2="352" y2="448"/>
    <line x1="352" y1="320" x2="192" y2="448"/>
    <line x1="672" y1="320" x2="832" y2="448"/>
    <line x1="832" y1="320" x2="672" y2="448"/>
  </g>
  <rect x="528" y="672" width="16" height="48" fill="none"/>
</svg> 