<?xml version="1.0" standalone="no"?>
<!DOCTYPE svg PUBLIC "-//W3C//DTD SVG 20010904//EN"
 "http://www.w3.org/TR/2001/REC-SVG-20010904/DTD/svg10.dtd">
<svg version="1.0" xmlns="http://www.w3.org/2000/svg"
 width="1024.000000pt" height="1024.000000pt" viewBox="0 0 1024.000000 1024.000000"
 preserveAspectRatio="xMidYMid meet">

<g transform="translate(0.000000,1024.000000) scale(0.100000,-0.100000)"
fill="#000000" stroke="none">
<path d="M4745 8574 c-198 -52 -619 -162 -935 -245 -1129 -296 -3034 -798
-3092 -815 -53 -16 -67 -91 -22 -120 29 -19 36 -18 266 44 l108 30 0 -2639 0
-2639 -338 0 c-310 0 -340 -1 -355 -17 -37 -42 -22 -98 31 -113 26 -8 1396
-10 4735 -8 l4699 3 19 24 c25 30 24 66 -1 91 -19 19 -33 20 -355 20 l-335 0
0 2639 0 2639 172 -44 c95 -24 179 -44 185 -44 23 0 53 39 53 68 0 34 -32 67
-75 76 -36 8 -433 112 -1215 317 -316 82 -762 199 -990 259 -228 60 -640 168
-915 240 -957 251 -1263 330 -1271 329 -5 0 -171 -43 -369 -95z m774 -150
c223 -58 498 -130 611 -159 113 -30 286 -75 385 -100 99 -26 270 -71 380 -100
110 -29 333 -87 495 -130 162 -42 558 -146 880 -230 322 -85 624 -164 673
-176 l87 -21 0 -1169 0 -1169 -385 0 -385 0 0 89 c0 81 -2 92 -25 119 -23 28
-25 34 -15 74 14 64 12 188 -6 311 l-16 109 29 30 c27 28 28 34 33 146 5 112
6 117 27 120 26 4 53 37 53 65 0 10 -11 29 -25 42 -21 22 -33 25 -100 25 l-75
0 0 534 c0 511 -1 535 -19 557 l-19 24 -616 0 c-577 0 -616 -1 -633 -18 -17
-16 -18 -55 -21 -557 l-3 -540 -534 0 -535 0 0 544 0 545 -22 15 c-20 14 -95
16 -618 16 -499 0 -599 -2 -616 -14 -18 -14 -19 -33 -22 -560 l-2 -546 -535 0
-535 0 0 519 c0 340 -4 528 -11 549 -6 17 -22 35 -37 41 -19 8 -201 11 -624 9
-558 -3 -598 -4 -615 -21 -17 -16 -18 -55 -21 -556 l-3 -539 -85 -3 c-71 -3
-88 -7 -100 -23 -29 -41 -12 -91 39 -109 15 -6 17 -21 17 -122 0 -110 1 -117
25 -141 30 -30 30 -43 8 -195 -15 -105 -15 -124 -1 -210 l15 -94 -24 -28 c-20
-25 -23 -39 -23 -118 l0 -89 -380 0 -380 0 0 1168 0 1168 103 25 c56 14 507
133 1002 263 1105 291 1536 405 2040 536 303 79 722 189 754 199 2 0 187 -47
410 -105z m101 -1629 l0 -495 -500 0 -500 0 0 495 0 495 500 0 500 0 0 -495z
m-2927 363 c4 -66 7 -168 7 -225 l0 -104 -147 178 c-80 98 -164 199 -185 226
l-40 47 180 0 179 0 6 -122z m426 25 c-46 -54 -124 -145 -173 -203 -49 -58
-96 -113 -105 -122 -15 -16 -16 1 -16 202 l0 220 188 0 189 0 -83 -97z m4296
-118 c4 -119 5 -218 3 -220 -3 -3 -80 86 -173 198 -93 111 -175 210 -183 220
-14 16 -5 17 165 17 l181 0 7 -215z m493 207 c-4 -9 -362 -442 -363 -439 0 1
1 102 3 225 l4 222 180 0 c99 0 178 -4 176 -8z m-5454 -361 c114 -137 208
-253 208 -256 1 -4 -64 -85 -143 -181 l-144 -173 -67 0 -68 -1 0 430 c0 237 2
430 3 430 2 0 97 -112 211 -249z m826 -181 l0 -430 -64 0 c-64 0 -64 0 -108
48 -23 27 -92 108 -151 180 l-109 132 49 58 c27 31 122 144 212 250 90 105
165 192 167 192 2 0 4 -193 4 -430z m3905 172 l205 -253 -21 -27 c-11 -15 -78
-93 -147 -174 l-127 -148 -65 0 -65 0 0 430 c0 237 3 429 7 428 4 -2 100 -117
213 -256z m815 -172 l0 -430 -64 0 -63 0 -151 176 c-131 153 -150 179 -139
194 15 21 411 489 415 490 1 0 2 -193 2 -430z m-5300 -345 l0 -85 -75 0 -75 0
71 85 c39 47 73 85 75 85 2 0 4 -38 4 -85z m172 37 c21 -26 52 -64 69 -84 l31
-38 -76 0 -76 0 0 85 c0 47 3 85 8 85 4 -1 24 -22 44 -48z m4547 -37 l-3 -85
-75 0 -74 0 19 23 c11 12 44 50 74 85 29 34 55 62 57 62 2 0 3 -38 2 -85z
m243 -47 l30 -38 -71 0 -71 0 0 63 c0 34 -3 73 -6 87 -4 21 2 17 41 -25 26
-27 60 -67 77 -87z m-5092 -283 c0 -114 0 -114 31 -150 l32 -36 -13 -82 c-19
-122 -24 -252 -11 -317 11 -55 10 -60 -14 -95 -22 -33 -25 -48 -25 -121 l0
-84 -110 0 -110 0 0 85 c0 84 -15 138 -40 147 -8 2 -8 17 -1 48 15 67 13 191
-5 313 l-17 108 32 31 31 30 0 119 0 119 110 0 110 0 0 -115z m640 10 c0 -110
12 -154 47 -174 16 -8 16 -17 4 -108 -21 -151 -24 -236 -12 -308 11 -61 10
-67 -11 -96 -19 -25 -24 -46 -26 -120 l-4 -89 -124 0 -124 0 0 85 c0 84 -15
138 -40 147 -7 2 -7 14 0 38 15 52 12 200 -6 322 l-16 108 31 31 31 31 0 119
0 119 125 0 125 0 0 -105z m642 -14 c3 -116 4 -121 32 -150 l28 -29 -12 -84
c-19 -122 -23 -256 -11 -322 10 -53 9 -60 -12 -88 -18 -24 -23 -46 -25 -119
l-4 -89 -123 0 -123 0 -4 94 c-3 82 -6 98 -26 119 -21 22 -22 27 -11 77 13 60
8 205 -12 326 l-13 82 30 25 c29 25 29 26 32 151 l4 126 123 0 123 0 4 -119z
m628 -381 l0 -500 -119 0 -119 0 -4 90 c-3 73 -8 95 -27 120 -20 28 -21 36
-12 81 15 70 14 135 -6 281 l-17 128 30 31 c28 30 29 33 32 150 l4 119 119 0
119 0 0 -500z m791 410 c-1 -100 10 -154 38 -184 26 -27 26 -62 5 -194 -16
-98 -14 -176 7 -256 9 -34 8 -41 -12 -62 -24 -26 -38 -83 -39 -161 l0 -53
-159 0 -158 0 -5 91 c-5 72 -10 97 -27 120 -20 27 -21 34 -11 115 9 71 8 112
-7 226 -11 91 -14 144 -8 152 44 60 45 64 50 176 3 63 5 115 5 117 0 2 73 2
161 1 l162 -3 -2 -85z m679 -14 c0 -112 11 -161 41 -177 24 -12 24 -46 3 -177
-15 -95 -14 -190 5 -274 7 -29 4 -38 -14 -56 -26 -26 -35 -62 -35 -148 l0 -64
-135 0 -135 0 0 500 0 500 135 0 135 0 0 -104z m650 -15 c0 -113 1 -121 25
-149 29 -35 30 -51 9 -180 -16 -99 -14 -223 5 -289 7 -24 6 -35 -3 -40 -26
-16 -36 -54 -36 -137 l0 -86 -129 0 -129 0 -4 94 c-3 81 -6 98 -26 118 -20 23
-21 29 -12 78 15 78 12 181 -7 302 l-17 107 32 29 32 30 0 121 0 121 130 0
130 0 0 -119z m640 0 c0 -113 1 -121 25 -149 29 -35 30 -51 9 -180 -17 -101
-14 -235 6 -287 9 -23 6 -32 -15 -57 -23 -27 -25 -38 -25 -119 l0 -89 -130 0
-130 0 0 94 c0 85 -2 97 -24 123 -22 26 -24 34 -16 69 14 60 12 203 -6 312
l-15 99 30 31 c31 30 31 31 31 145 0 62 3 117 7 120 3 4 62 7 130 7 l123 0 0
-119z m632 6 c3 -115 3 -116 53 -183 6 -8 3 -56 -9 -138 -17 -122 -16 -214 4
-293 6 -25 4 -35 -11 -49 -26 -23 -39 -76 -39 -156 l0 -68 -120 0 -120 0 0 63
c-1 82 -14 138 -39 158 -18 15 -19 22 -11 75 14 86 12 175 -6 297 l-17 109 27
21 c35 29 46 73 46 184 l0 93 119 0 119 0 4 -113z m-5640 18 l3 -85 -77 0 -78
0 0 85 0 85 74 0 75 0 3 -85z m608 0 l0 -85 -75 0 -75 0 0 85 0 85 75 0 75 0
0 -85z m640 1 l0 -84 -75 -4 -75 -3 0 88 0 87 75 0 75 0 0 -84z m640 -1 l0
-85 -75 0 -75 0 0 85 0 85 75 0 75 0 0 -85z m710 0 l0 -85 -80 0 -80 0 0 85 0
85 80 0 80 0 0 -85z m710 0 l0 -85 -75 0 -75 0 0 85 0 85 75 0 75 0 0 -85z
m680 0 l0 -85 -75 0 -75 0 0 85 0 85 75 0 75 0 0 -85z m650 0 l0 -85 -80 0
-80 0 0 85 0 85 80 0 80 0 0 -85z m632 0 l3 -85 -77 0 -78 0 0 85 0 85 74 0
75 0 3 -85z m646 -2 l-3 -88 -77 -3 -78 -3 0 91 0 90 80 0 81 0 -3 -87z
m-3537 -266 c-4 -87 -11 -85 -11 3 0 40 3 70 7 67 3 -4 5 -35 4 -70z m-2424
-47 c13 -104 12 -244 -2 -307 -9 -42 -40 -45 -49 -5 -25 114 -26 132 -16 242
15 167 18 182 38 178 13 -3 19 -24 29 -108z m610 5 c15 -133 16 -226 1 -297
-10 -49 -15 -58 -33 -58 -20 0 -23 9 -35 85 -11 68 -11 108 -1 202 16 160 19
175 39 171 14 -3 19 -24 29 -103z m628 62 c25 -154 30 -263 14 -354 -10 -55
-14 -63 -33 -63 -20 0 -23 8 -34 85 -10 66 -10 115 -1 218 6 72 13 138 15 144
6 23 33 2 39 -30z m635 39 c0 -2 7 -64 16 -138 13 -111 14 -148 3 -225 -11
-86 -13 -93 -34 -93 -20 0 -23 7 -35 89 -10 72 -10 115 0 223 7 73 14 136 17
141 4 7 33 10 33 3z m2119 -140 c10 -97 11 -163 5 -224 -9 -84 -10 -87 -34
-87 -22 0 -26 5 -33 55 -9 55 -2 321 9 373 5 19 12 27 23 25 13 -3 19 -29 30
-142z m639 26 c15 -137 15 -213 0 -279 -10 -43 -16 -53 -34 -53 -18 0 -22 9
-31 79 -9 72 -4 208 12 327 5 34 9 41 24 37 15 -4 20 -23 29 -111z m641 -30
c12 -119 12 -156 1 -227 -12 -77 -15 -85 -35 -85 -21 0 -23 7 -34 93 -8 66 -9
121 -1 197 15 156 18 169 38 166 14 -2 19 -24 31 -144z m639 33 c12 -105 11
-226 -4 -308 -5 -32 -10 -38 -28 -35 -30 4 -39 78 -32 258 7 172 12 202 35
198 13 -3 19 -26 29 -113z m-3324 63 c22 -160 26 -256 13 -328 -11 -63 -16
-75 -32 -75 -30 0 -48 104 -40 235 10 177 15 210 35 210 13 0 19 -11 24 -42z
m726 -86 c17 -177 4 -313 -32 -320 -22 -4 -32 59 -32 208 0 169 10 240 33 240
16 0 20 -16 31 -128z m-3270 -502 l0 -60 -75 0 -75 0 0 60 0 60 75 0 75 0 0
-60z m610 0 l0 -60 -75 0 -75 0 0 60 0 60 75 0 75 0 0 -60z m640 0 l0 -60 -75
0 -75 0 0 60 0 60 75 0 75 0 0 -60z m640 0 l0 -60 -75 0 -75 0 0 60 0 60 75 0
75 0 0 -60z m710 0 l0 -60 -80 0 -80 0 0 60 0 60 80 0 80 0 0 -60z m710 0 l0
-60 -75 0 -75 0 0 60 0 60 75 0 75 0 0 -60z m680 0 l0 -60 -75 0 -75 0 0 60 0
60 75 0 75 0 0 -60z m640 0 l0 -60 -75 0 -75 0 0 53 c0 30 3 57 7 60 3 4 37 7
75 7 l68 0 0 -60z m640 0 l0 -60 -75 0 -75 0 0 60 0 60 75 0 75 0 0 -60z m646
-2 l2 -58 -79 0 -79 0 0 60 0 61 78 -3 77 -3 1 -57z m884 -303 l0 -125 -3910
0 -3910 0 0 125 0 125 3910 0 3910 0 0 -125z m0 -1495 l0 -1240 -1635 0 -1635
0 0 1085 c0 1072 0 1085 -20 1105 -20 20 -33 20 -619 20 l-600 0 -20 -26 c-21
-27 -21 -29 -21 -1105 l0 -1079 -1635 0 -1635 0 0 1240 0 1240 3910 0 3910 0
0 -1240z m-3410 -205 l0 -1035 -500 0 -500 0 0 1035 0 1035 500 0 500 0 0
-1035z"/>
<path d="M2049 4393 c-15 -2 -35 -13 -45 -25 -18 -19 -19 -54 -22 -692 -2
-369 0 -686 3 -705 4 -18 17 -44 30 -57 l24 -24 576 0 576 0 24 25 25 24 0
695 c0 713 -1 734 -39 753 -16 8 -1104 14 -1152 6z m501 -350 c0 -183 -2 -215
-14 -203 -7 8 -80 98 -161 200 -82 102 -155 193 -163 203 -14 16 -6 17 161 17
l177 0 0 -217z m443 170 c-22 -27 -95 -115 -163 -198 -68 -82 -129 -156 -136
-164 -11 -12 -14 22 -16 197 l-3 212 178 0 179 0 -39 -47z m-717 -273 c77 -96
163 -204 191 -241 l52 -65 -157 -190 c-86 -105 -176 -213 -199 -240 l-42 -49
-1 490 c0 270 4 485 9 480 4 -6 71 -89 147 -185z m826 -297 c-3 -461 -4 -487
-20 -467 -109 131 -372 463 -372 468 0 4 73 97 163 208 89 110 176 217 192
239 17 21 32 38 35 39 3 0 4 -219 2 -487z m-248 -403 l164 -205 -165 -3 c-91
-1 -167 -1 -169 1 -1 1 -4 98 -6 214 -2 117 0 209 4 205 5 -5 82 -100 172
-212z m-304 0 l0 -210 -180 0 -181 0 176 210 c97 116 178 210 181 210 2 0 4
-94 4 -210z"/>
<path d="M7043 4390 c-12 -5 -26 -18 -32 -29 -8 -13 -11 -244 -11 -721 l0
-701 25 -24 24 -25 576 0 576 0 24 25 25 24 0 704 c0 679 -1 706 -19 728 l-19
24 -574 2 c-324 1 -582 -2 -595 -7z m517 -342 c0 -178 -2 -210 -13 -198 -8 8
-80 96 -162 195 -81 99 -155 188 -163 198 -14 16 -6 17 161 17 l177 0 0 -212z
m313 5 c-91 -115 -169 -212 -174 -217 -5 -6 -9 79 -9 207 l0 217 174 0 174 0
-165 -207z m-538 -168 c130 -161 194 -249 189 -257 -11 -18 -315 -395 -358
-443 l-35 -40 -1 493 c0 270 2 492 5 492 2 0 92 -110 200 -245z m782 -612 l-2
-121 -180 219 c-99 121 -188 231 -198 244 l-18 24 182 228 c100 125 187 236
193 246 8 13 13 -75 18 -350 5 -203 7 -423 5 -490z m-399 155 c72 -85 322
-394 322 -398 0 -3 -79 -4 -175 -2 l-174 3 -3 214 c-2 118 -2 215 0 215 2 0
15 -14 30 -32z m-158 -188 l0 -209 -170 -3 c-94 -2 -169 1 -167 6 3 9 330 416
335 416 1 0 2 -94 2 -210z"/>
<path d="M5407 3300 l-27 -21 0 -145 c0 -131 2 -146 20 -164 24 -24 57 -26 88
-4 21 14 22 22 22 163 0 158 -5 175 -50 186 -18 4 -34 0 -53 -15z"/>
</g>
</svg>
